<?xml version="1.0" standalone="no"?>
<!DOCTYPE svg PUBLIC "-//W3C//DTD SVG 20010904//EN"
 "http://www.w3.org/TR/2001/REC-SVG-20010904/DTD/svg10.dtd">
<svg version="1.0" xmlns="http://www.w3.org/2000/svg"
 width="500.000000pt" height="500.000000pt" viewBox="0 0 500.000000 500.000000"
 preserveAspectRatio="xMidYMid meet">
<metadata>
Created by potrace 1.11, written by Peter Selinger 2001-2013
</metadata>
<g transform="translate(0.000000,500.000000) scale(0.100000,-0.100000)"
fill="#000000" stroke="none">
<path d="M1000 3375 l0 -625 625 0 625 0 0 625 0 625 -625 0 -625 0 0 -625z"/>
<path d="M3245 3985 c-237 -51 -430 -245 -480 -481 -71 -334 146 -668 481
-739 437 -93 832 301 740 736 -72 337 -408 557 -741 484z"/>
<path d="M1495 2235 c-237 -51 -430 -245 -480 -481 -71 -334 146 -668 481
-739 437 -93 832 301 740 736 -72 337 -408 557 -741 484z"/>
<path d="M2750 1625 l0 -625 625 0 625 0 0 625 0 625 -625 0 -625 0 0 -625z"/>
</g>
</svg>
